<svg xmlns="http://www.w3.org/2000/svg" version="1.1" xmlns:xlink="http://www.w3.org/1999/xlink" width="1024" height="1024"><svg xmlns="http://www.w3.org/2000/svg" width="1024" height="1024" viewBox="0 0 1024 1024">
<g>
<path d="M 0.00 0.00 L 1024.00 0.00 L 1024.00 1024.00 L 0.00 1024.00 ZM 400.31 585.57 C401.60,587.04 407.00,587.53 407.00,586.18 C407.00,585.72 409.36,585.45 412.25,585.58 C416.05,585.74 418.41,585.25 420.78,583.80 C422.59,582.70 425.58,581.65 427.42,581.48 C429.27,581.31 431.69,580.39 432.81,579.43 C433.93,578.47 435.89,577.57 437.17,577.43 C439.62,577.17 455.07,563.06 459.47,557.06 C460.86,555.16 462.00,552.57 462.00,551.31 C462.00,550.04 462.38,549.00 462.84,549.00 C463.96,549.00 466.00,544.42 466.00,541.92 C466.00,540.82 466.62,538.93 467.38,537.71 C469.03,535.07 470.34,523.33 469.07,522.54 C468.58,522.24 468.51,520.76 468.92,519.25 C469.33,517.74 469.33,515.04 468.94,513.25 C468.54,511.46 468.60,510.00 469.08,510.00 C470.59,510.00 469.44,498.32 467.67,495.62 C466.75,494.22 466.00,491.57 466.00,489.73 C466.00,487.74 464.99,485.02 463.50,483.00 C462.12,481.14 461.00,478.88 461.00,477.98 C461.00,475.29 440.24,455.21 436.64,454.42 C434.93,454.05 433.06,453.10 432.49,452.32 C431.93,451.54 429.51,450.73 427.12,450.51 C424.74,450.29 421.88,449.30 420.78,448.31 C419.09,446.79 417.20,446.53 408.88,446.71 C403.10,446.83 399.00,446.52 399.00,445.96 C399.00,445.37 389.46,445.00 374.50,445.00 C357.25,445.00 350.00,445.33 350.00,446.11 C350.00,446.72 349.36,446.97 348.58,446.67 C345.52,445.50 341.28,451.82 344.00,453.50 C345.54,454.45 345.36,577.24 343.82,578.78 C341.87,580.73 344.68,585.01 347.38,584.20 C350.21,583.36 400.58,582.75 399.76,583.57 C399.41,583.92 399.66,584.82 400.31,585.57 ZM 499.53 587.84 C500.75,588.57 503.22,588.79 506.00,588.40 C510.97,587.71 513.50,587.24 513.50,586.99 C513.50,586.83 514.77,586.60 520.86,585.64 C522.70,585.36 524.95,584.50 525.86,583.75 C527.64,582.27 532.55,580.00 533.98,580.00 C534.47,580.00 535.14,580.86 535.47,581.92 C535.81,582.97 537.38,584.29 538.97,584.84 C542.23,585.98 546.30,585.29 545.36,583.77 C544.96,583.12 547.51,582.89 552.62,583.13 L 560.50 583.50 L 560.50 549.21 C560.50,527.50 560.13,514.66 559.50,514.21 C558.95,513.82 558.35,511.70 558.16,509.50 C557.97,507.30 556.96,504.57 555.91,503.44 C554.86,502.30 554.00,500.60 554.00,499.66 C554.00,497.52 546.46,489.25 543.05,487.65 C541.65,486.99 539.38,486.47 538.00,486.48 C536.62,486.49 534.69,485.77 533.70,484.88 C531.04,482.49 517.00,480.85 517.00,482.94 C517.00,483.45 515.44,483.62 513.53,483.31 C511.33,482.95 508.80,483.34 506.63,484.37 C504.74,485.27 501.80,486.00 500.09,486.00 C498.22,486.00 496.30,486.80 495.27,488.00 C494.33,489.10 492.48,490.00 491.17,490.00 C489.60,490.00 486.91,491.90 483.28,495.59 C478.45,500.50 477.86,501.54 478.38,504.17 C479.08,507.64 482.04,511.50 487.00,515.42 C492.45,519.71 498.98,518.22 508.65,510.48 C510.95,508.64 511.80,508.54 518.33,509.44 C526.01,510.50 528.90,512.48 528.97,516.75 C528.99,517.99 529.45,519.00 529.99,519.00 C531.02,519.00 530.84,521.26 529.57,524.17 C528.99,525.51 527.74,525.78 523.42,525.52 C520.39,525.34 518.00,525.62 518.00,526.15 C518.00,526.68 517.56,526.84 517.01,526.51 C515.34,525.47 503.95,527.19 502.44,528.70 C501.65,529.49 499.32,530.29 497.25,530.48 C492.78,530.90 479.92,539.09 478.66,542.34 C478.19,543.53 477.14,545.91 476.31,547.64 C475.48,549.37 474.73,551.96 474.65,553.39 C474.57,554.83 474.16,556.00 473.75,556.00 C473.34,556.00 473.00,557.35 473.00,559.00 C473.00,560.65 473.39,562.00 473.88,562.00 C474.36,562.00 474.55,563.91 474.29,566.25 C473.94,569.51 474.28,570.97 475.75,572.53 C476.81,573.65 477.99,575.80 478.36,577.32 C478.78,578.98 480.13,580.53 481.78,581.22 C483.27,581.86 485.40,583.15 486.50,584.09 C487.60,585.03 490.54,585.99 493.03,586.23 C495.52,586.46 498.45,587.19 499.53,587.84 ZM 598.53 588.06 C599.38,589.43 612.80,588.83 613.86,587.38 C614.21,586.89 615.40,586.40 616.50,586.27 C623.89,585.44 626.29,584.74 629.68,582.45 C635.00,578.84 641.99,570.91 642.00,568.47 C642.00,567.36 642.73,565.41 643.62,564.14 C644.70,562.59 645.05,560.69 644.68,558.41 C644.34,556.34 644.54,555.00 645.18,555.00 C646.61,555.00 645.24,546.18 643.41,543.56 C642.63,542.46 642.00,540.77 642.00,539.81 C642.00,537.27 636.21,531.08 633.14,530.36 C631.69,530.01 629.69,529.03 628.71,528.17 C627.72,527.31 625.96,526.46 624.80,526.29 C623.64,526.11 622.20,525.30 621.60,524.49 C620.99,523.68 618.25,522.71 615.50,522.34 C612.75,521.97 609.31,520.79 607.85,519.72 C606.38,518.64 604.72,518.06 604.14,518.41 C602.62,519.35 599.72,514.45 600.45,512.17 C601.26,509.60 608.71,507.53 613.71,508.48 C615.79,508.88 618.62,509.41 619.98,509.66 C621.35,509.92 623.28,511.00 624.27,512.06 C625.52,513.40 627.41,514.00 630.42,514.00 C634.22,514.00 635.22,513.50 638.38,510.00 C640.37,507.80 642.00,505.15 642.00,504.12 C642.00,503.09 642.67,501.68 643.50,501.00 C646.03,498.90 645.17,495.68 641.30,492.75 C639.31,491.24 637.01,490.00 636.20,490.00 C635.39,490.00 634.19,489.27 633.54,488.38 C632.89,487.49 630.59,486.57 628.43,486.33 C626.27,486.09 623.30,485.30 621.82,484.56 C617.98,482.64 596.60,482.57 595.02,484.48 C594.08,485.61 591.38,486.62 587.00,487.49 C586.72,487.54 584.92,488.42 583.00,489.45 C577.66,492.29 574.00,496.18 574.00,499.02 C574.00,500.42 573.05,502.37 571.88,503.37 C570.14,504.86 569.85,505.97 570.26,509.59 C570.53,512.02 570.36,514.00 569.88,514.00 C569.39,514.00 569.00,514.90 569.00,516.00 C569.00,517.10 569.39,518.00 569.88,518.00 C570.36,518.00 570.53,519.97 570.26,522.38 C569.86,525.93 570.17,527.17 571.88,528.88 C573.05,530.05 574.00,531.58 574.00,532.30 C574.00,536.00 587.43,545.00 592.96,545.00 C594.55,545.00 596.46,545.60 597.20,546.34 C599.66,548.80 602.93,550.06 605.32,549.46 C607.13,549.00 608.54,549.69 611.34,552.41 C615.25,556.21 615.29,556.31 614.37,559.75 C614.00,561.12 612.99,562.00 611.78,562.00 C610.69,562.00 608.53,563.36 606.97,565.03 C604.76,567.39 603.95,567.76 603.32,566.69 C602.09,564.63 597.23,561.74 596.12,562.42 C595.59,562.75 594.43,562.29 593.54,561.39 C590.97,558.83 584.01,557.43 577.44,558.16 C575.17,558.41 568.12,566.79 567.14,570.40 C566.67,572.13 566.68,574.27 567.17,575.23 C568.33,577.52 574.99,582.00 577.23,582.00 C578.20,582.00 579.00,582.42 579.00,582.93 C579.00,584.09 582.13,585.12 586.89,585.54 C591.51,585.95 593.78,586.45 594.57,587.24 C594.91,587.58 595.78,587.64 596.50,587.36 C597.21,587.09 598.13,587.40 598.53,588.06 ZM 406.91 558.39 C404.49,558.73 397.10,559.25 390.50,559.54 C381.11,559.96 378.12,559.77 376.75,558.68 C375.13,557.39 375.00,554.12 375.00,516.20 C375.00,493.60 375.35,474.90 375.77,474.64 C376.20,474.38 383.83,474.04 392.73,473.89 C406.47,473.66 409.20,473.87 410.71,475.23 C411.70,476.12 413.67,477.14 415.11,477.49 C417.57,478.11 424.87,484.50 429.70,490.27 C433.31,494.59 435.36,499.30 435.14,502.79 C435.03,504.60 435.24,506.57 435.61,507.18 C436.40,508.45 436.46,522.78 435.69,525.00 C435.40,525.83 434.91,528.69 434.59,531.36 C434.15,535.02 433.06,537.35 430.14,540.86 C428.01,543.41 425.95,546.51 425.57,547.75 C425.18,548.99 424.33,550.00 423.68,550.00 C423.03,550.00 419.99,551.75 416.91,553.88 C413.44,556.30 409.66,558.00 406.91,558.39 ZM 662.50 586.49 C663.05,586.66 667.04,586.67 671.36,586.50 C678.83,586.22 679.37,586.04 682.30,582.85 C685.72,579.13 686.98,573.81 686.24,566.20 C685.66,560.18 681.71,555.23 676.36,553.83 C669.63,552.06 666.26,551.77 665.56,552.90 C665.19,553.51 663.62,554.00 662.08,554.00 C658.66,554.00 654.00,557.46 654.00,560.00 C654.00,561.02 653.33,562.53 652.50,563.36 C650.76,565.10 650.40,575.51 652.04,576.53 C652.62,576.88 653.79,578.94 654.65,581.09 C655.78,583.91 656.97,585.18 658.86,585.60 C660.31,585.91 661.95,586.32 662.50,586.49 ZM 519.00 562.72 C511.17,565.52 504.00,563.24 504.00,557.94 C504.00,554.53 509.74,550.19 515.94,548.92 C519.00,548.30 521.95,547.43 522.50,547.00 C524.01,545.82 529.40,546.08 530.23,547.37 C531.41,549.17 531.11,554.48 529.75,556.13 C527.99,558.26 523.12,561.24 519.00,562.72 Z" fill="rgb(0,0,0)"></path>
<path d="M 400.31 585.57 C399.66,584.82 399.41,583.92 399.76,583.57 C400.58,582.75 350.21,583.36 347.38,584.20 C344.68,585.01 341.87,580.73 343.82,578.78 C345.36,577.24 345.54,454.45 344.00,453.50 C341.28,451.82 345.52,445.50 348.58,446.67 C349.36,446.97 350.00,446.72 350.00,446.11 C350.00,445.33 357.25,445.00 374.50,445.00 C389.46,445.00 399.00,445.37 399.00,445.96 C399.00,446.52 403.10,446.83 408.88,446.71 C417.20,446.53 419.09,446.79 420.78,448.31 C421.88,449.30 424.74,450.29 427.12,450.51 C429.51,450.73 431.93,451.54 432.49,452.32 C433.06,453.10 434.93,454.05 436.64,454.42 C440.24,455.21 461.00,475.29 461.00,477.98 C461.00,478.88 462.12,481.14 463.50,483.00 C464.99,485.02 466.00,487.74 466.00,489.73 C466.00,491.57 466.75,494.22 467.67,495.62 C469.44,498.32 470.59,510.00 469.08,510.00 C468.60,510.00 468.54,511.46 468.94,513.25 C469.33,515.04 469.33,517.74 468.92,519.25 C468.51,520.76 468.58,522.24 469.07,522.54 C470.34,523.33 469.03,535.07 467.38,537.71 C466.62,538.93 466.00,540.82 466.00,541.92 C466.00,544.42 463.96,549.00 462.84,549.00 C462.38,549.00 462.00,550.04 462.00,551.31 C462.00,552.57 460.86,555.16 459.47,557.06 C455.07,563.06 439.62,577.17 437.17,577.43 C435.89,577.57 433.93,578.47 432.81,579.43 C431.69,580.39 429.27,581.31 427.42,581.48 C425.58,581.65 422.59,582.70 420.78,583.80 C418.41,585.25 416.05,585.74 412.25,585.58 C409.36,585.45 407.00,585.72 407.00,586.18 C407.00,587.53 401.60,587.04 400.31,585.57 ZM 348.75 582.42 C349.16,582.83 363.67,582.98 381.00,582.75 C406.54,582.41 413.64,582.02 418.50,580.65 C442.26,573.99 459.56,555.73 464.60,532.00 C466.95,520.95 466.06,504.11 462.55,493.21 C457.54,477.62 445.52,463.58 431.50,456.92 C419.07,451.03 416.35,450.67 380.75,450.24 L 348.00 449.85 L 348.00 515.76 C348.00,552.01 348.34,582.00 348.75,582.42 ZM 499.53 587.84 C498.45,587.19 495.52,586.46 493.03,586.23 C490.54,585.99 487.60,585.03 486.50,584.09 C485.40,583.15 483.27,581.86 481.78,581.22 C480.13,580.53 478.78,578.98 478.36,577.32 C477.99,575.80 476.81,573.65 475.75,572.53 C474.28,570.97 473.94,569.51 474.29,566.25 C474.55,563.91 474.36,562.00 473.88,562.00 C473.39,562.00 473.00,560.65 473.00,559.00 C473.00,557.35 473.34,556.00 473.75,556.00 C474.16,556.00 474.57,554.83 474.65,553.39 C474.73,551.96 475.48,549.37 476.31,547.64 C477.14,545.91 478.19,543.53 478.66,542.34 C479.92,539.09 492.78,530.90 497.25,530.48 C499.32,530.29 501.65,529.49 502.44,528.70 C503.95,527.19 515.34,525.47 517.01,526.51 C517.56,526.84 518.00,526.68 518.00,526.15 C518.00,525.62 520.39,525.34 523.42,525.52 C527.74,525.78 528.99,525.51 529.57,524.17 C530.84,521.26 531.02,519.00 529.99,519.00 C529.45,519.00 528.99,517.99 528.97,516.75 C528.90,512.48 526.01,510.50 518.33,509.44 C511.80,508.54 510.95,508.64 508.65,510.48 C498.98,518.22 492.45,519.71 487.00,515.42 C482.04,511.50 479.08,507.64 478.38,504.17 C477.86,501.54 478.45,500.50 483.28,495.59 C486.91,491.90 489.60,490.00 491.17,490.00 C492.48,490.00 494.33,489.10 495.27,488.00 C496.30,486.80 498.22,486.00 500.09,486.00 C501.80,486.00 504.74,485.27 506.63,484.37 C508.80,483.34 511.33,482.95 513.53,483.31 C515.44,483.62 517.00,483.45 517.00,482.94 C517.00,480.85 531.04,482.49 533.70,484.88 C534.69,485.77 536.62,486.49 538.00,486.48 C539.38,486.47 541.65,486.99 543.05,487.65 C546.46,489.25 554.00,497.52 554.00,499.66 C554.00,500.60 554.86,502.30 555.91,503.44 C556.96,504.57 557.97,507.30 558.16,509.50 C558.35,511.70 558.95,513.82 559.50,514.21 C560.13,514.66 560.50,527.50 560.50,549.21 L 560.50 583.50 L 552.62 583.13 C547.51,582.89 544.96,583.12 545.36,583.77 C546.30,585.29 542.23,585.98 538.97,584.84 C537.38,584.29 535.81,582.97 535.47,581.92 C535.14,580.86 534.47,580.00 533.98,580.00 C532.55,580.00 527.64,582.27 525.86,583.75 C524.95,584.50 522.70,585.36 520.86,585.64 C514.77,586.60 513.50,586.83 513.50,586.99 C513.50,587.24 510.97,587.71 506.00,588.40 C503.22,588.79 500.75,588.57 499.53,587.84 ZM 598.53 588.06 C598.13,587.40 597.21,587.09 596.50,587.36 C595.78,587.64 594.91,587.58 594.57,587.24 C593.78,586.45 591.51,585.95 586.89,585.54 C582.13,585.12 579.00,584.09 579.00,582.93 C579.00,582.42 578.20,582.00 577.23,582.00 C574.99,582.00 568.33,577.52 567.17,575.23 C566.68,574.27 566.67,572.13 567.14,570.40 C568.12,566.79 575.17,558.41 577.44,558.16 C584.01,557.43 590.97,558.83 593.54,561.39 C594.43,562.29 595.59,562.75 596.12,562.42 C597.23,561.74 602.09,564.63 603.32,566.69 C603.95,567.76 604.76,567.39 606.97,565.03 C608.53,563.36 610.69,562.00 611.78,562.00 C612.99,562.00 614.00,561.12 614.37,559.75 C615.29,556.31 615.25,556.21 611.34,552.41 C608.54,549.69 607.13,549.00 605.32,549.46 C602.93,550.06 599.66,548.80 597.20,546.34 C596.46,545.60 594.55,545.00 592.96,545.00 C587.43,545.00 574.00,536.00 574.00,532.30 C574.00,531.58 573.05,530.05 571.88,528.88 C570.17,527.17 569.86,525.93 570.26,522.38 C570.53,519.97 570.36,518.00 569.88,518.00 C569.39,518.00 569.00,517.10 569.00,516.00 C569.00,514.90 569.39,514.00 569.88,514.00 C570.36,514.00 570.53,512.02 570.26,509.59 C569.85,505.97 570.14,504.86 571.88,503.37 C573.05,502.37 574.00,500.42 574.00,499.02 C574.00,496.18 577.66,492.29 583.00,489.45 C584.92,488.42 586.72,487.54 587.00,487.49 C591.38,486.62 594.08,485.61 595.02,484.48 C596.60,482.57 617.98,482.64 621.82,484.56 C623.30,485.30 626.27,486.09 628.43,486.33 C630.59,486.57 632.89,487.49 633.54,488.38 C634.19,489.27 635.39,490.00 636.20,490.00 C637.01,490.00 639.31,491.24 641.30,492.75 C645.17,495.68 646.03,498.90 643.50,501.00 C642.67,501.68 642.00,503.09 642.00,504.12 C642.00,505.15 640.37,507.80 638.38,510.00 C635.22,513.50 634.22,514.00 630.42,514.00 C627.41,514.00 625.52,513.40 624.27,512.06 C623.28,511.00 621.35,509.92 619.98,509.66 C618.62,509.41 615.79,508.88 613.71,508.48 C608.71,507.53 601.26,509.60 600.45,512.17 C599.72,514.45 602.62,519.35 604.14,518.41 C604.72,518.06 606.38,518.64 607.85,519.72 C609.31,520.79 612.75,521.97 615.50,522.34 C618.25,522.71 620.99,523.68 621.60,524.49 C622.20,525.30 623.64,526.11 624.80,526.29 C625.96,526.46 627.72,527.31 628.71,528.17 C629.69,529.03 631.69,530.01 633.14,530.36 C636.21,531.08 642.00,537.27 642.00,539.81 C642.00,540.77 642.63,542.46 643.41,543.56 C645.24,546.18 646.61,555.00 645.18,555.00 C644.54,555.00 644.34,556.34 644.68,558.41 C645.05,560.69 644.70,562.59 643.62,564.14 C642.73,565.41 642.00,567.36 642.00,568.47 C641.99,570.91 635.00,578.84 629.68,582.45 C626.29,584.74 623.89,585.44 616.50,586.27 C615.40,586.40 614.21,586.89 613.86,587.38 C612.80,588.83 599.38,589.43 598.53,588.06 ZM 415.50 560.20 C410.96,562.29 408.79,562.53 391.75,562.83 L 373.00 563.16 L 373.00 469.85 L 392.25 470.17 C411.02,470.49 411.66,470.57 417.73,473.38 C433.09,480.47 442.06,498.75 440.62,520.07 C439.25,540.47 431.50,552.85 415.50,560.20 ZM 493.18 582.05 C496.81,583.75 499.09,584.02 507.50,583.73 C518.35,583.36 521.67,582.19 531.25,575.38 C533.87,573.52 536.16,572.00 536.34,572.00 C536.53,572.00 537.22,573.80 537.88,576.00 C539.56,581.61 542.38,583.17 550.15,582.80 L 556.50 582.50 L 556.77 555.00 C557.09,522.56 556.33,513.71 552.49,505.17 C547.24,493.46 538.23,487.88 523.50,487.22 C509.27,486.58 495.93,490.67 485.75,498.79 L 482.00 501.78 L 485.25 506.62 C490.14,513.91 492.16,514.21 502.73,509.18 C510.16,505.65 512.51,505.00 517.82,505.00 C521.56,505.00 525.32,505.63 527.13,506.57 C531.29,508.72 533.95,514.95 533.98,522.60 L 534.00 528.70 L 525.56 529.35 C503.05,531.08 487.88,537.18 481.29,547.13 C477.27,553.21 476.85,562.80 480.26,570.26 C482.84,575.89 485.83,578.62 493.18,582.05 ZM 406.91 558.39 C409.66,558.00 413.44,556.30 416.91,553.88 C419.99,551.75 423.03,550.00 423.68,550.00 C424.33,550.00 425.18,548.99 425.57,547.75 C425.95,546.51 428.01,543.41 430.14,540.86 C433.06,537.35 434.15,535.02 434.59,531.36 C434.91,528.69 435.40,525.83 435.69,525.00 C436.46,522.78 436.40,508.45 435.61,507.18 C435.24,506.57 435.03,504.60 435.14,502.79 C435.36,499.30 433.31,494.59 429.70,490.27 C424.87,484.50 417.57,478.11 415.11,477.49 C413.67,477.14 411.70,476.12 410.71,475.23 C409.20,473.87 406.47,473.66 392.73,473.89 C383.83,474.04 376.20,474.38 375.77,474.64 C375.35,474.90 375.00,493.60 375.00,516.20 C375.00,554.12 375.13,557.39 376.75,558.68 C378.12,559.77 381.11,559.96 390.50,559.54 C397.10,559.25 404.49,558.73 406.91,558.39 ZM 587.72 581.62 C593.70,583.77 595.86,584.03 606.00,583.76 C615.87,583.50 618.29,583.09 623.05,580.88 C635.21,575.22 641.30,566.16 641.35,553.66 C641.41,539.36 635.79,533.84 613.57,526.36 C608.08,524.51 601.88,521.86 599.79,520.48 C596.44,518.27 596.00,517.50 596.00,513.94 C596.00,506.47 602.11,503.16 613.85,504.28 C616.96,504.58 622.07,506.01 625.21,507.46 C632.09,510.65 633.67,510.12 637.66,503.32 L 640.38 498.67 L 636.77 495.55 C634.79,493.83 630.09,491.32 626.33,489.96 C620.62,487.90 617.78,487.51 609.00,487.58 C597.09,487.67 590.24,489.70 583.75,495.05 C572.93,503.98 570.76,521.19 579.17,531.39 C583.31,536.42 588.90,539.43 602.58,544.03 C616.31,548.64 620.00,551.38 620.00,556.96 C620.00,567.90 605.56,571.71 591.37,564.52 C580.99,559.26 578.71,559.84 573.15,569.14 L 570.98 572.78 L 575.96 575.98 C578.70,577.74 584.00,580.27 587.72,581.62 ZM 662.50 586.49 C661.95,586.32 660.31,585.91 658.86,585.60 C656.97,585.18 655.78,583.91 654.65,581.09 C653.79,578.94 652.62,576.88 652.04,576.53 C650.40,575.51 650.76,565.10 652.50,563.36 C653.33,562.53 654.00,561.02 654.00,560.00 C654.00,557.46 658.66,554.00 662.08,554.00 C663.62,554.00 665.19,553.51 665.56,552.90 C666.26,551.77 669.63,552.06 676.36,553.83 C681.71,555.23 685.66,560.18 686.24,566.20 C686.98,573.81 685.72,579.13 682.30,582.85 C679.37,586.04 678.83,586.22 671.36,586.50 C667.04,586.67 663.05,586.66 662.50,586.49 ZM 520.61 567.52 C512.77,569.85 506.73,568.98 502.37,564.88 C500.53,563.15 500.00,561.60 500.00,557.93 C500.00,553.79 500.43,552.83 503.49,550.15 C507.96,546.22 519.94,543.02 530.25,543.01 L 534.00 543.00 L 534.00 558.84 L 529.79 562.44 C527.48,564.42 523.35,566.71 520.61,567.52 ZM 662.30 582.04 C671.27,587.51 682.99,581.09 683.00,570.70 C683.00,562.59 677.62,557.00 669.82,557.00 C660.74,557.00 655.62,562.02 655.76,570.79 C655.83,575.83 657.88,579.35 662.30,582.04 ZM 519.00 562.72 C523.12,561.24 527.99,558.26 529.75,556.13 C531.11,554.48 531.41,549.17 530.23,547.37 C529.40,546.08 524.01,545.82 522.50,547.00 C521.95,547.43 519.00,548.30 515.94,548.92 C509.74,550.19 504.00,554.53 504.00,557.94 C504.00,563.24 511.17,565.52 519.00,562.72 Z" fill="rgb(1,1,1)"></path>
<path d="M 493.18 582.05 C485.83,578.62 482.84,575.89 480.26,570.26 C476.85,562.80 477.27,553.21 481.29,547.13 C487.88,537.18 503.05,531.08 525.56,529.35 L 534.00 528.70 L 533.98 522.60 C533.95,514.95 531.29,508.72 527.13,506.57 C525.32,505.63 521.56,505.00 517.82,505.00 C512.51,505.00 510.16,505.65 502.73,509.18 C492.16,514.21 490.14,513.91 485.25,506.62 L 482.00 501.78 L 485.75 498.79 C495.93,490.67 509.27,486.58 523.50,487.22 C538.23,487.88 547.24,493.46 552.49,505.17 C556.33,513.71 557.09,522.56 556.77,555.00 L 556.50 582.50 L 550.15 582.80 C542.38,583.17 539.56,581.61 537.88,576.00 C537.22,573.80 536.53,572.00 536.34,572.00 C536.16,572.00 533.87,573.52 531.25,575.38 C521.67,582.19 518.35,583.36 507.50,583.73 C499.09,584.02 496.81,583.75 493.18,582.05 ZM 520.61 567.52 C523.35,566.71 527.48,564.42 529.79,562.44 L 534.00 558.84 L 534.00 550.92 L 534.00 543.00 L 530.25 543.01 C519.94,543.02 507.96,546.22 503.49,550.15 C500.43,552.83 500.00,553.79 500.00,557.93 C500.00,561.60 500.53,563.15 502.37,564.88 C506.73,568.98 512.77,569.85 520.61,567.52 ZM 587.72 581.62 C584.00,580.27 578.70,577.74 575.96,575.98 L 570.98 572.78 L 573.15 569.14 C578.71,559.84 580.99,559.26 591.37,564.52 C605.56,571.71 620.00,567.90 620.00,556.96 C620.00,551.38 616.31,548.64 602.58,544.03 C588.90,539.43 583.31,536.42 579.17,531.39 C570.76,521.19 572.93,503.98 583.75,495.05 C590.24,489.70 597.09,487.67 609.00,487.58 C617.78,487.51 620.62,487.90 626.33,489.96 C630.09,491.32 634.79,493.83 636.77,495.55 L 640.38 498.67 L 637.66 503.32 C633.67,510.12 632.09,510.65 625.21,507.46 C622.07,506.01 616.96,504.58 613.85,504.28 C602.11,503.16 596.00,506.47 596.00,513.94 C596.00,517.50 596.44,518.27 599.79,520.48 C601.88,521.86 608.08,524.51 613.57,526.36 C635.79,533.84 641.41,539.36 641.35,553.66 C641.30,566.16 635.21,575.22 623.05,580.88 C618.29,583.09 615.87,583.50 606.00,583.76 C595.86,584.03 593.70,583.77 587.72,581.62 ZM 662.30 582.04 C657.88,579.35 655.83,575.83 655.76,570.79 C655.62,562.02 660.74,557.00 669.82,557.00 C677.62,557.00 683.00,562.59 683.00,570.70 C682.99,581.09 671.27,587.51 662.30,582.04 ZM 348.75 582.42 C348.34,582.00 348.00,552.01 348.00,515.76 L 348.00 449.85 L 380.75 450.24 C416.35,450.67 419.07,451.03 431.50,456.92 C445.52,463.58 457.54,477.62 462.55,493.21 C466.06,504.11 466.95,520.95 464.60,532.00 C459.56,555.73 442.26,573.99 418.50,580.65 C413.64,582.02 406.54,582.41 381.00,582.75 C363.67,582.98 349.16,582.83 348.75,582.42 ZM 415.50 560.20 C431.50,552.85 439.25,540.47 440.62,520.07 C442.06,498.75 433.09,480.47 417.73,473.38 C411.66,470.57 411.02,470.49 392.25,470.17 L 373.00 469.85 L 373.00 516.50 L 373.00 563.16 L 391.75 562.83 C408.79,562.53 410.96,562.29 415.50,560.20 Z" fill="rgb(254,254,254)"></path>
</g>
</svg><style>@media (prefers-color-scheme: light) { :root { filter: none; } }
@media (prefers-color-scheme: dark) { :root { filter: none; } }
</style></svg>